<svg width="128" height="128" viewBox="0 0 128 128" fill="none" xmlns="http://www.w3.org/2000/svg">
<g clip-path="url(#clip0_43_51)">
<path d="M26.6667 37.3333C26.6667 42.9913 28.9143 48.4175 32.9151 52.4183C36.9159 56.4191 42.3421 58.6667 48 58.6667C53.658 58.6667 59.0842 56.4191 63.085 52.4183C67.0857 48.4175 69.3334 42.9913 69.3334 37.3333C69.3334 31.6754 67.0857 26.2492 63.085 22.2484C59.0842 18.2476 53.658 16 48 16C42.3421 16 36.9159 18.2476 32.9151 22.2484C28.9143 26.2492 26.6667 31.6754 26.6667 37.3333Z" stroke="white" stroke-width="10" stroke-linecap="round" stroke-linejoin="round"/>
<path d="M16 112V101.333C16 95.6754 18.2476 90.2492 22.2484 86.2484C26.2492 82.2476 31.6754 80 37.3333 80H58.6667C64.3246 80 69.7508 82.2476 73.7516 86.2484C77.7524 90.2492 80 95.6754 80 101.333V112" stroke="white" stroke-width="10" stroke-linecap="round" stroke-linejoin="round"/>
<path d="M85.3333 16.6934C89.9222 17.8683 93.9895 20.5371 96.8941 24.279C99.7986 28.0209 101.375 32.6231 101.375 37.36C101.375 42.0969 99.7986 46.6991 96.8941 50.441C93.9895 54.1829 89.9222 56.8518 85.3333 58.0267" stroke="white" stroke-width="10" stroke-linecap="round" stroke-linejoin="round"/>
<path d="M112 112V101.333C111.973 96.6247 110.389 92.0574 107.495 88.3433C104.601 84.6292 100.559 81.9769 96 80.7998" stroke="white" stroke-width="10" stroke-linecap="round" stroke-linejoin="round"/>
</g>
<defs>
<clipPath id="clip0_43_51">
<rect width="128" height="128" fill="white"/>
</clipPath>
</defs>
</svg>
